<svg width="41" height="41" viewBox="0 0 41 41" fill="none" xmlns="http://www.w3.org/2000/svg">
<path d="M7.41899 0.425293C3.37303 0.425293 0.115234 3.66758 0.115234 7.69427V32.9659C0.115234 36.9926 3.37303 40.2349 7.41899 40.2349H21.1815V24.6718H17.0465V19.0686H21.1815V14.2815C21.1815 10.5205 23.6247 7.06727 29.2528 7.06727C31.5315 7.06727 33.2165 7.28499 33.2165 7.28499L33.084 12.5175C33.084 12.5175 31.3655 12.5013 29.4902 12.5013C27.4607 12.5013 27.1352 13.432 27.1352 14.977V19.0687H33.2452L32.979 24.6718H27.1352V40.2349H32.8115C36.8574 40.2349 40.1152 36.9926 40.1152 32.9659V7.69431C40.1152 3.66762 36.8574 0.425333 32.8115 0.425333H7.41895L7.41899 0.425293Z" fill="#E5EAEF"/>
</svg>
