<svg width="41" height="41" viewBox="0 0 41 41" fill="none" xmlns="http://www.w3.org/2000/svg">
<path d="M20.2905 10.0953C14.6118 10.0953 10.0288 14.6657 10.0288 20.3288C10.0288 25.9919 14.6118 30.5623 20.2905 30.5623C25.9693 30.5623 30.5523 25.9919 30.5523 20.3288C30.5523 14.6657 25.9693 10.0953 20.2905 10.0953ZM20.2905 26.9798C16.6181 26.9798 13.6211 23.9911 13.6211 20.3288C13.6211 16.6665 16.6181 13.6778 20.2905 13.6778C23.9629 13.6778 26.9599 16.6665 26.9599 20.3288C26.9599 23.9911 23.9629 26.9798 20.2905 26.9798ZM30.9725 7.29123C29.6467 7.29123 28.576 8.35899 28.576 9.68121C28.576 11.0034 29.6467 12.0712 30.9725 12.0712C32.2984 12.0712 33.3691 11.0084 33.3691 9.68121C33.3695 9.36724 33.3078 9.05628 33.1875 8.76614C33.0672 8.47599 32.8907 8.21237 32.6681 7.99036C32.4454 7.76835 32.1811 7.59232 31.8901 7.47236C31.5992 7.35239 31.2874 7.29084 30.9725 7.29123ZM40.2937 20.3288C40.2937 17.5746 40.3187 14.8453 40.1636 12.0961C40.0085 8.90284 39.278 6.0688 36.9365 3.73372C34.5899 1.39364 31.7531 0.670163 28.5509 0.515488C25.7891 0.360814 23.0523 0.385761 20.2955 0.385761C17.5337 0.385761 14.7969 0.360814 12.0401 0.515488C8.838 0.670163 5.99613 1.39863 3.65459 3.73372C1.30805 6.07379 0.582574 8.90284 0.427472 12.0961C0.27237 14.8503 0.297387 17.5796 0.297387 20.3288C0.297387 23.078 0.27237 25.8123 0.427472 28.5615C0.582574 31.7548 1.31305 34.5888 3.65459 36.9239C6.00113 39.264 8.838 39.9874 12.0401 40.1421C14.8019 40.2968 17.5387 40.2718 20.2955 40.2718C23.0573 40.2718 25.7941 40.2968 28.5509 40.1421C31.7531 39.9874 34.5949 39.259 36.9365 36.9239C39.283 34.5838 40.0085 31.7548 40.1636 28.5615C40.3237 25.8123 40.2937 23.083 40.2937 20.3288ZM35.8908 32.0941C35.5255 33.0021 35.0852 33.6807 34.3798 34.3792C33.6743 35.0828 32.9989 35.5218 32.0883 35.8861C29.4565 36.9289 23.2074 36.6944 20.2905 36.6944C17.3736 36.6944 11.1195 36.9289 8.48777 35.8911C7.57717 35.5268 6.89672 35.0878 6.19626 34.3842C5.4908 33.6807 5.05051 33.0071 4.68527 32.099C3.64459 29.4696 3.87974 23.2377 3.87974 20.3288C3.87974 17.4199 3.64459 11.183 4.68527 8.55857C5.05051 7.65048 5.4908 6.97191 6.19626 6.27338C6.90173 5.57484 7.57717 5.13078 8.48777 4.76655C11.1195 3.72873 17.3736 3.96324 20.2905 3.96324C23.2074 3.96324 29.4615 3.72873 32.0933 4.76655C33.0039 5.13078 33.6843 5.56986 34.3848 6.27338C35.0902 6.97689 35.5305 7.65048 35.8958 8.55857C36.9365 11.183 36.7013 17.4199 36.7013 20.3288C36.7013 23.2377 36.9365 29.4696 35.8908 32.0941Z" fill="#E5EAEF"/>
</svg>
