<svg width="115" height="40" viewBox="0 0 115 40" fill="none" xmlns="http://www.w3.org/2000/svg">
<rect x="1.75" y="1.75" width="111.5" height="35.7766" stroke="#1F252E" stroke-width="3.5"/>
<path d="M21.5582 25.0885C20.7782 25.0885 20.0836 24.9545 19.4742 24.6864C18.8684 24.4148 18.3896 24.0422 18.038 23.5687C17.6898 23.0916 17.5104 22.5415 17.5 21.9182H19.7772C19.7911 22.1794 19.8764 22.4092 20.0331 22.6077C20.1933 22.8027 20.4057 22.9541 20.6703 23.0621C20.9349 23.17 21.2326 23.224 21.5634 23.224C21.9081 23.224 22.2128 23.163 22.4774 23.0412C22.742 22.9193 22.9492 22.7504 23.0989 22.5345C23.2486 22.3187 23.3235 22.0697 23.3235 21.7877C23.3235 21.5022 23.2434 21.2497 23.0832 21.0304C22.9266 20.8075 22.7002 20.6334 22.4043 20.5081C22.1118 20.3827 21.7636 20.32 21.3597 20.32H20.3621V18.6592H21.3597C21.7009 18.6592 22.0021 18.6 22.2633 18.4816C22.5279 18.3632 22.7333 18.1996 22.8796 17.9906C23.0258 17.7783 23.0989 17.531 23.0989 17.249C23.0989 16.9809 23.0345 16.7459 22.9057 16.5439C22.7803 16.3385 22.6027 16.1783 22.3729 16.0634C22.1466 15.9485 21.882 15.8911 21.5791 15.8911C21.2727 15.8911 20.9924 15.9468 20.7382 16.0582C20.484 16.1661 20.2803 16.3211 20.1271 16.523C19.9739 16.725 19.8921 16.9617 19.8816 17.2333H17.7141C17.7246 16.617 17.9004 16.0739 18.2416 15.6038C18.5829 15.1337 19.0425 14.7664 19.6205 14.5018C20.202 14.2337 20.8583 14.0996 21.5895 14.0996C22.3277 14.0996 22.9736 14.2337 23.5272 14.5018C24.0808 14.7699 24.5108 15.132 24.8172 15.5881C25.1271 16.0408 25.2803 16.5491 25.2769 17.1132C25.2803 17.7121 25.0941 18.2117 24.718 18.6122C24.3454 19.0126 23.8597 19.2668 23.2608 19.3747V19.4583C24.0477 19.5592 24.6466 19.8326 25.0575 20.2783C25.4718 20.7205 25.6773 21.2741 25.6738 21.9391C25.6773 22.5485 25.5014 23.0899 25.1463 23.5634C24.7946 24.037 24.3089 24.4096 23.6891 24.6811C23.0693 24.9527 22.359 25.0885 21.5582 25.0885Z" fill="#1F252E"/>
<path d="M28.3192 25.0781C27.9745 25.0781 27.6785 24.9562 27.4313 24.7125C27.1876 24.4653 27.0657 24.1693 27.0657 23.8246C27.0657 23.4834 27.1876 23.1909 27.4313 22.9472C27.6785 22.7034 27.9745 22.5816 28.3192 22.5816C28.6534 22.5816 28.9459 22.7034 29.1966 22.9472C29.4473 23.1909 29.5727 23.4834 29.5727 23.8246C29.5727 24.0544 29.5135 24.2651 29.3951 24.4566C29.2802 24.6446 29.1287 24.796 28.9407 24.9109C28.7527 25.0224 28.5455 25.0781 28.3192 25.0781Z" fill="#1F252E"/>
<path d="M35.1415 25.1773C34.2432 25.1738 33.4702 24.9527 32.8226 24.514C32.1784 24.0753 31.6823 23.4398 31.3341 22.6077C30.9894 21.7755 30.8188 20.7744 30.8222 19.6045C30.8222 18.4381 30.9946 17.444 31.3393 16.6223C31.6875 15.8005 32.1837 15.1755 32.8278 14.7472C33.4755 14.3155 34.2467 14.0996 35.1415 14.0996C36.0364 14.0996 36.8059 14.3155 37.4501 14.7472C38.0977 15.179 38.5956 15.8057 38.9438 16.6275C39.292 17.4457 39.4643 18.4381 39.4609 19.6045C39.4609 20.7779 39.2868 21.7807 38.9386 22.6129C38.5939 23.4451 38.0994 24.0805 37.4553 24.5192C36.8111 24.958 36.0399 25.1773 35.1415 25.1773ZM35.1415 23.3023C35.7544 23.3023 36.2436 22.9942 36.6092 22.3779C36.9748 21.7616 37.1558 20.8371 37.1524 19.6045C37.1524 18.7932 37.0688 18.1177 36.9017 17.578C36.738 17.0383 36.5047 16.6327 36.2018 16.3611C35.9023 16.0895 35.5489 15.9537 35.1415 15.9537C34.5322 15.9537 34.0447 16.2584 33.6791 16.8677C33.3135 17.4771 33.129 18.3893 33.1255 19.6045C33.1255 20.4262 33.2073 21.1122 33.371 21.6623C33.5381 22.209 33.7732 22.6199 34.0761 22.8949C34.379 23.1665 34.7342 23.3023 35.1415 23.3023Z" fill="#1F252E"/>
<path d="M46.8016 14.2458V24.9423H44.5401V14.2458H46.8016Z" fill="#1F252E"/>
<path d="M57.609 14.2458V24.9423H55.6557L51.0021 18.21H50.9238V24.9423H48.6623V14.2458H50.6469L55.264 20.9729H55.358V14.2458H57.609Z" fill="#1F252E"/>
<path d="M61.41 14.2458L63.9953 22.3726H64.0945L66.6851 14.2458H69.1921L65.5047 24.9423H62.5903L58.8978 14.2458H61.41Z" fill="#1F252E"/>
<path d="M70.4795 24.9423V14.2458H77.6871V16.1104H72.741V18.6592H77.3162V20.5237H72.741V23.0777H77.7079V24.9423H70.4795Z" fill="#1F252E"/>
<path d="M85.2876 17.3221C85.2458 16.9008 85.0665 16.5735 84.7497 16.3402C84.4328 16.1069 84.0028 15.9903 83.4596 15.9903C83.0905 15.9903 82.7789 16.0425 82.5247 16.147C82.2706 16.2479 82.0756 16.389 81.9398 16.57C81.8075 16.7511 81.7413 16.9565 81.7413 17.1863C81.7343 17.3778 81.7744 17.545 81.8614 17.6877C81.952 17.8305 82.0756 17.9541 82.2323 18.0585C82.3889 18.1595 82.57 18.2483 82.7754 18.3249C82.9809 18.398 83.2002 18.4607 83.4335 18.5129L84.3945 18.7427C84.8611 18.8472 85.2894 18.9865 85.6793 19.1606C86.0693 19.3347 86.4071 19.5488 86.6926 19.803C86.9781 20.0572 87.1992 20.3566 87.3559 20.7013C87.5161 21.046 87.5979 21.4412 87.6014 21.8869C87.5979 22.5415 87.4308 23.1091 87.1 23.5896C86.7727 24.0666 86.2991 24.4374 85.6793 24.702C85.063 24.9632 84.3197 25.0938 83.4492 25.0938C82.5857 25.0938 81.8336 24.9614 81.1929 24.6968C80.5557 24.4322 80.0578 24.0405 79.6992 23.5217C79.344 22.9994 79.1577 22.3535 79.1403 21.584H81.3287C81.3531 21.9426 81.4558 22.2421 81.6368 22.4823C81.8214 22.7191 82.0669 22.8984 82.3733 23.0203C82.6832 23.1387 83.0331 23.1978 83.4231 23.1978C83.8061 23.1978 84.1386 23.1421 84.4206 23.0307C84.7062 22.9193 84.9273 22.7644 85.0839 22.5659C85.2406 22.3674 85.319 22.1393 85.319 21.8817C85.319 21.6414 85.2476 21.4395 85.1048 21.2758C84.9656 21.1122 84.7601 20.9729 84.4885 20.858C84.2204 20.7431 83.8914 20.6386 83.5014 20.5446L82.3367 20.2521C81.4349 20.0328 80.7228 19.6898 80.2006 19.2232C79.6783 18.7567 79.4189 18.1282 79.4223 17.3378C79.4189 16.6902 79.5912 16.1243 79.9394 15.6404C80.2911 15.1564 80.7733 14.7786 81.3861 14.507C81.999 14.2354 82.6953 14.0996 83.4753 14.0996C84.2692 14.0996 84.9621 14.2354 85.554 14.507C86.1494 14.7786 86.6125 15.1564 86.9433 15.6404C87.2741 16.1243 87.4447 16.6849 87.4551 17.3221H85.2876Z" fill="#1F252E"/>
<path d="M88.7151 16.1104V14.2458H97.5V16.1104H94.2253V24.9423H91.9899V16.1104H88.7151Z" fill="#1F252E"/>
</svg>
