<svg width="163" height="56" viewBox="0 0 163 56" fill="none" xmlns="http://www.w3.org/2000/svg">
<rect x="2.46756" y="2.79715" width="157.219" height="50.4463" stroke="white" stroke-width="4.93512"/>
<path d="M30.3979 35.7053C29.2982 35.7053 28.3187 35.5163 27.4595 35.1383C26.6053 34.7553 25.9302 34.23 25.4343 33.5623C24.9434 32.8897 24.6905 32.1139 24.6758 31.2351H27.8867C27.9063 31.6033 28.0266 31.9274 28.2475 32.2072C28.4734 32.4822 28.7729 32.6957 29.146 32.8479C29.5191 33.0001 29.9389 33.0762 30.4053 33.0762C30.8914 33.0762 31.321 32.9903 31.6941 32.8185C32.0672 32.6466 32.3593 32.4085 32.5705 32.1041C32.7816 31.7997 32.8871 31.4487 32.8871 31.051C32.8871 30.6484 32.7742 30.2925 32.5484 29.9832C32.3274 29.669 32.0083 29.4235 31.591 29.2467C31.1786 29.07 30.6876 28.9816 30.1181 28.9816H28.7115V26.6397H30.1181C30.5992 26.6397 31.0239 26.5563 31.3921 26.3893C31.7653 26.2224 32.0549 25.9916 32.2611 25.6971C32.4673 25.3976 32.5705 25.049 32.5705 24.6513C32.5705 24.2733 32.4796 23.9419 32.298 23.6571C32.1212 23.3675 31.8708 23.1416 31.5468 22.9796C31.2277 22.8176 30.8545 22.7366 30.4274 22.7366C29.9954 22.7366 29.6001 22.8151 29.2417 22.9722C28.8833 23.1244 28.5961 23.3429 28.3801 23.6277C28.1641 23.9124 28.0487 24.2463 28.034 24.6292H24.9777C24.9925 23.7602 25.2404 22.9943 25.7215 22.3315C26.2027 21.6687 26.8507 21.1508 27.6657 20.7776C28.4856 20.3996 29.4111 20.2106 30.4421 20.2106C31.483 20.2106 32.3937 20.3996 33.1743 20.7776C33.955 21.1557 34.5613 21.6663 34.9933 22.3094C35.4303 22.9477 35.6463 23.6645 35.6414 24.4598C35.6463 25.3043 35.3837 26.0088 34.8534 26.5734C34.3281 27.138 33.6432 27.4964 32.7987 27.6486V27.7665C33.9083 27.9089 34.7528 28.2943 35.3321 28.9227C35.9164 29.5462 36.206 30.3268 36.2011 31.2646C36.206 32.1238 35.9581 32.8872 35.4573 33.5549C34.9614 34.2226 34.2765 34.748 33.4026 35.1309C32.5287 35.5139 31.5272 35.7053 30.3979 35.7053Z" fill="white"/>
<path d="M39.9312 35.6906C39.4451 35.6906 39.0278 35.5188 38.6792 35.1751C38.3356 34.8265 38.1637 34.4092 38.1637 33.9231C38.1637 33.442 38.3356 33.0296 38.6792 32.6859C39.0278 32.3422 39.4451 32.1704 39.9312 32.1704C40.4025 32.1704 40.8149 32.3422 41.1684 32.6859C41.5219 33.0296 41.6987 33.442 41.6987 33.9231C41.6987 34.2472 41.6152 34.5442 41.4483 34.8142C41.2863 35.0794 41.0727 35.2929 40.8076 35.4549C40.5424 35.612 40.2503 35.6906 39.9312 35.6906Z" fill="white"/>
<path d="M49.551 35.8305C48.2843 35.8256 47.1944 35.5139 46.2812 34.8952C45.3729 34.2766 44.6733 33.3806 44.1823 32.2072C43.6963 31.0338 43.4557 29.6223 43.4606 27.9727C43.4606 26.328 43.7036 24.9263 44.1897 23.7676C44.6806 22.6089 45.3803 21.7276 46.2885 21.1238C47.2017 20.515 48.2892 20.2106 49.551 20.2106C50.8128 20.2106 51.8978 20.515 52.8061 21.1238C53.7193 21.7326 54.4213 22.6163 54.9123 23.775C55.4033 24.9287 55.6463 26.328 55.6414 27.9727C55.6414 29.6272 55.3959 31.0412 54.9049 32.2146C54.4189 33.388 53.7217 34.284 52.8134 34.9026C51.9051 35.5212 50.8177 35.8305 49.551 35.8305ZM49.551 33.1867C50.4151 33.1867 51.1049 32.7522 51.6204 31.8832C52.1359 31.0142 52.3912 29.7107 52.3863 27.9727C52.3863 26.8287 52.2685 25.8763 52.0328 25.1153C51.802 24.3543 51.4731 23.7823 51.046 23.3994C50.6237 23.0164 50.1254 22.8249 49.551 22.8249C48.6918 22.8249 48.0045 23.2545 47.4889 24.1137C46.9734 24.9729 46.7132 26.2592 46.7083 27.9727C46.7083 29.1314 46.8237 30.0985 47.0544 30.8743C47.2901 31.6451 47.6215 32.2244 48.0486 32.6123C48.4758 32.9952 48.9766 33.1867 49.551 33.1867Z" fill="white"/>
<path d="M65.9921 20.4168V35.4991H62.8033V20.4168H65.9921Z" fill="white"/>
<path d="M81.2309 20.4168V35.4991H78.4766L71.9149 26.0064H71.8045V35.4991H68.6157V20.4168H71.4141L77.9243 29.9022H78.0569V20.4168H81.2309Z" fill="white"/>
<path d="M86.5904 20.4168L90.2358 31.8758H90.3757L94.0285 20.4168H97.5634L92.3641 35.4991H88.2547L83.0481 20.4168H86.5904Z" fill="white"/>
<path d="M99.3787 35.4991V20.4168H109.542V23.0459H102.568V26.6397H109.019V29.2688H102.568V32.87H109.571V35.4991H99.3787Z" fill="white"/>
<path d="M120.259 24.7544C120.2 24.1604 119.947 23.6989 119.5 23.3699C119.053 23.041 118.447 22.8765 117.681 22.8765C117.161 22.8765 116.721 22.9501 116.363 23.0974C116.005 23.2398 115.73 23.4386 115.538 23.6939C115.352 23.9492 115.258 24.2389 115.258 24.5629C115.248 24.833 115.305 25.0686 115.428 25.2699C115.555 25.4712 115.73 25.6455 115.951 25.7928C116.171 25.9352 116.427 26.0604 116.716 26.1684C117.006 26.2715 117.315 26.3599 117.644 26.4335L118.999 26.7575C119.657 26.9048 120.261 27.1012 120.811 27.3467C121.361 27.5922 121.837 27.8941 122.24 28.2525C122.642 28.6109 122.954 29.0332 123.175 29.5192C123.401 30.0053 123.516 30.5625 123.521 31.1909C123.516 32.1139 123.281 32.9142 122.814 33.5917C122.353 34.2644 121.685 34.7872 120.811 35.1604C119.942 35.5286 118.894 35.7127 117.666 35.7127C116.449 35.7127 115.388 35.5261 114.485 35.153C113.587 34.7799 112.884 34.2275 112.379 33.496C111.878 32.7596 111.615 31.8488 111.591 30.7638H114.676C114.711 31.2695 114.856 31.6917 115.111 32.0305C115.371 32.3643 115.717 32.6172 116.149 32.789C116.586 32.9559 117.08 33.0394 117.63 33.0394C118.17 33.0394 118.639 32.9609 119.036 32.8037C119.439 32.6466 119.751 32.4282 119.972 32.1483C120.192 31.8685 120.303 31.5469 120.303 31.1836C120.303 30.8448 120.202 30.5601 120.001 30.3293C119.805 30.0985 119.515 29.9022 119.132 29.7401C118.754 29.5781 118.29 29.4308 117.74 29.2983L116.098 28.8859C114.826 28.5766 113.822 28.093 113.086 27.4351C112.349 26.7772 111.984 25.891 111.988 24.7765C111.984 23.8633 112.227 23.0655 112.718 22.3831C113.213 21.7006 113.893 21.1679 114.757 20.785C115.622 20.402 116.604 20.2106 117.703 20.2106C118.823 20.2106 119.8 20.402 120.634 20.785C121.474 21.1679 122.127 21.7006 122.593 22.3831C123.06 23.0655 123.3 23.856 123.315 24.7544H120.259Z" fill="white"/>
<path d="M125.092 23.0459V20.4168H137.479V23.0459H132.861V35.4991H129.709V23.0459H125.092Z" fill="white"/>
</svg>
