<svg width="41" height="41" viewBox="0 0 41 41" fill="none" xmlns="http://www.w3.org/2000/svg">
<path fill-rule="evenodd" clip-rule="evenodd" d="M15.2203 14.2676H22.6483V17.9676C23.7183 15.8396 26.4623 13.9276 30.5843 13.9276C38.4863 13.9276 40.3623 18.1636 40.3623 25.9356V40.3296H32.3623V27.7056C32.3623 23.2796 31.2923 20.7836 28.5683 20.7836C24.7903 20.7836 23.2203 23.4736 23.2203 27.7036V40.3296H15.2203V14.2676ZM1.5023 39.9896H9.50231V13.9276H1.5023V39.9896ZM10.6483 5.42959C10.6486 6.10014 10.5156 6.76406 10.2571 7.38276C9.99854 8.00147 9.61961 8.56262 9.1423 9.03359C8.17511 9.99484 6.86592 10.5329 5.50231 10.5296C4.14108 10.5287 2.83493 9.99199 1.8663 9.03559C1.39073 8.56301 1.01308 8.00124 0.754992 7.38245C0.496908 6.76367 0.363463 6.10004 0.362305 5.42959C0.362305 4.07559 0.902305 2.77959 1.8683 1.82359C2.83608 0.865907 4.14278 0.328991 5.5043 0.32959C6.8683 0.32959 8.1763 0.86759 9.1423 1.82359C10.1063 2.77959 10.6483 4.07559 10.6483 5.42959Z" fill="#E5EAEF"/>
</svg>
