<svg width="22" height="37" viewBox="0 0 22 37" fill="none" xmlns="http://www.w3.org/2000/svg">
<path d="M11.7803 16.4675C7.24031 15.2875 5.78031 14.0675 5.78031 12.1675C5.78031 9.98748 7.80031 8.46748 11.1803 8.46748C14.7403 8.46748 16.0603 10.1675 16.1803 12.6675H20.6003C20.4603 9.22748 18.3603 6.06748 14.1803 5.04748V0.66748H8.18031V4.98748C4.30031 5.82748 1.18031 8.34748 1.18031 12.2075C1.18031 16.8275 5.00031 19.1275 10.5803 20.4675C15.5803 21.6675 16.5803 23.4275 16.5803 25.2875C16.5803 26.6675 15.6003 28.8675 11.1803 28.8675C7.06031 28.8675 5.44031 27.0275 5.22031 24.6675H0.820312C1.06031 29.0475 4.34031 31.5075 8.18031 32.3275V36.6675H14.1803V32.3675C18.0803 31.6275 21.1803 29.3675 21.1803 25.2675C21.1803 19.5875 16.3203 17.6475 11.7803 16.4675Z" fill="#0079F1"/>
</svg>
