<svg width="45" height="37" viewBox="0 0 45 37" fill="none" xmlns="http://www.w3.org/2000/svg">
<path d="M44.5046 4.59985C42.8761 5.32147 41.1267 5.80904 39.2875 6.02943C41.1852 4.89394 42.6049 3.10681 43.2818 1.00151C41.4989 2.06051 39.5476 2.80594 37.5127 3.20537C36.1444 1.74432 34.3319 0.77591 32.3567 0.450495C30.3816 0.12508 28.3542 0.460866 26.5895 1.40572C24.8247 2.35057 23.4213 3.85163 22.597 5.67585C21.7728 7.50006 21.5738 9.54537 22.0311 11.4942C18.4185 11.3128 14.8844 10.3739 11.6582 8.73824C8.43197 7.10261 5.58572 4.8069 3.30416 2.00007C2.52403 3.34579 2.07546 4.90605 2.07546 6.56772C2.07459 8.0636 2.44296 9.53658 3.14789 10.8559C3.85283 12.1753 4.87253 13.3003 6.11651 14.1311C4.67382 14.0851 3.26295 13.6953 2.00134 12.994V13.111C2.0012 15.2091 2.72693 17.2425 4.05539 18.8664C5.38384 20.4903 7.23321 21.6045 9.28968 22.0201C7.95134 22.3823 6.54819 22.4356 5.18621 22.1761C5.76643 23.9814 6.89663 25.56 8.41861 26.691C9.94058 27.8219 11.7781 28.4487 13.674 28.4834C10.4556 31.0099 6.481 32.3804 2.38946 32.3743C1.66468 32.3745 0.940519 32.3322 0.220703 32.2476C4.37386 34.9179 9.20843 36.3351 14.146 36.3296C30.8602 36.3296 39.9974 22.4862 39.9974 10.4801C39.9974 10.09 39.9877 9.69603 39.9701 9.30596C41.7474 8.02066 43.2816 6.42904 44.5007 4.6057L44.5046 4.59985Z" fill="#E5EAEF"/>
</svg>
